Animal-Light.ufo
<glyph name="comma" format="2">
	<advance width="210"/>
	<unicode hex="002C"/>
	<outline>
		<contour>
			<point x="72" y="-145" type="curve" smooth="yes"/>
			<point x="107" y="-114"/>
			<point x="154" y="-51"/>
			<point x="154" y="15" type="curve" smooth="yes"/>
			<point x="154" y="57"/>
			<point x="132" y="84"/>
			<point x="102" y="84" type="curve" smooth="yes"/>
			<point x="71" y="84"/>
			<point x="51" y="66"/>
			<point x="51" y="37" type="curve" smooth="yes"/>
			<point x="51" y="8"/>
			<point x="71" y="-11"/>
			<point x="102" y="-11" type="curve" smooth="yes"/>
			<point x="125" y="-11"/>
			<point x="142" y="8"/>
			<point x="142" y="36" type="curve"/>
			<point x="113" y="27" type="line"/>
			<point x="113" y="-32"/>
			<point x="77" y="-87"/>
			<point x="49" y="-113" type="curve" smooth="yes"/>
			<point x="26" y="-135"/>
			<point x="55" y="-161"/>
		</contour>
	</outline>
</glyph>
<glyph name="hyphen" format="2">
	<advance width="415"/>
	<unicode hex="002D"/>
	<outline>
		<contour>
			<point x="69" y="300" type="curve" smooth="yes"/>
			<point x="348" y="300" type="line" smooth="yes"/>
			<point x="366" y="300"/>
			<point x="378" y="310"/>
			<point x="378" y="325" type="curve" smooth="yes"/>
			<point x="378" y="340"/>
			<point x="366" y="350"/>
			<point x="348" y="350" type="curve" smooth="yes"/>
			<point x="70" y="350" type="line" smooth="yes"/>
			<point x="52" y="350"/>
			<point x="39" y="340"/>
			<point x="39" y="325" type="curve" smooth="yes"/>
			<point x="39" y="310"/>
			<point x="52" y="300"/>
		</contour>
	</outline>
</glyph>
<glyph name="four" format="2">
	<advance width="565"/>
	<unicode hex="0034"/>
	<outline>
		<contour>
			<point x="122" y="210" type="curve" smooth="yes"/>
			<point x="485" y="210" type="line" smooth="yes"/>
			<point x="503" y="210"/>
			<point x="515" y="220"/>
			<point x="515" y="235" type="curve" smooth="yes"/>
			<point x="515" y="250"/>
			<point x="503" y="260"/>
			<point x="485" y="260" type="curve" smooth="yes"/>
			<point x="145" y="260" type="line"/>
			<point x="165" y="248" type="line"/>
			<point x="152" y="286" type="line"/>
			<point x="146" y="220" type="line"/>
			<point x="289" y="673" type="line" smooth="yes"/>
			<point x="296" y="696"/>
			<point x="280" y="711"/>
			<point x="266" y="711" type="curve" smooth="yes"/>
			<point x="256" y="711"/>
			<point x="245" y="703"/>
			<point x="240" y="687" type="curve" smooth="yes"/>
			<point x="97" y="245" type="line" smooth="yes"/>
			<point x="90" y="224"/>
			<point x="101" y="210"/>
		</contour>
		<contour>
			<point x="405" y="-10" type="curve" smooth="yes"/>
			<point x="424" y="-10"/>
			<point x="436" y="6"/>
			<point x="436" y="30" type="curve" smooth="yes"/>
			<point x="436" y="470" type="line" smooth="yes"/>
			<point x="436" y="494"/>
			<point x="424" y="510"/>
			<point x="406" y="510" type="curve" smooth="yes"/>
			<point x="388" y="510"/>
			<point x="376" y="494"/>
			<point x="376" y="470" type="curve" smooth="yes"/>
			<point x="376" y="30" type="line" smooth="yes"/>
			<point x="376" y="6"/>
			<point x="388" y="-10"/>
		</contour>
	</outline>
</glyph>
<glyph name="five" format="2">
	<advance width="482"/>
	<unicode hex="0035"/>
	<outline>
		<contour>
			<point x="212" y="-10" type="curve" smooth="yes"/>
			<point x="329" y="-10"/>
			<point x="427" y="73"/>
			<point x="427" y="197" type="curve" smooth="yes"/>
			<point x="427" y="326"/>
			<point x="347" y="412"/>
			<point x="234" y="412" type="curve" smooth="yes"/>
			<point x="114" y="412" type="line"/>
			<point x="130" y="399" type="line"/>
			<point x="130" y="672" type="line"/>
			<point x="114" y="650" type="line"/>
			<point x="355" y="650" type="line" smooth="yes"/>
			<point x="372" y="650"/>
			<point x="384" y="660"/>
			<point x="384" y="675" type="curve" smooth="yes"/>
			<point x="384" y="690"/>
			<point x="372" y="700"/>
			<point x="354" y="700" type="curve" smooth="yes"/>
			<point x="104" y="700" type="line" smooth="yes"/>
			<point x="90" y="700"/>
			<point x="81" y="688"/>
			<point x="81" y="670" type="curve" smooth="yes"/>
			<point x="81" y="412" type="line" smooth="yes"/>
			<point x="81" y="382"/>
			<point x="101" y="362"/>
			<point x="130" y="362" type="curve" smooth="yes"/>
			<point x="230" y="362" type="line" smooth="yes"/>
			<point x="307" y="362"/>
			<point x="367" y="293"/>
			<point x="367" y="190" type="curve" smooth="yes"/>
			<point x="367" y="100"/>
			<point x="295" y="40"/>
			<point x="218" y="40" type="curve" smooth="yes"/>
			<point x="167" y="40"/>
			<point x="124" y="61"/>
			<point x="98" y="83" type="curve" smooth="yes"/>
			<point x="69" y="107"/>
			<point x="34" y="71"/>
			<point x="68" y="41" type="curve" smooth="yes"/>
			<point x="103" y="10"/>
			<point x="160" y="-10"/>
		</contour>
	</outline>
</glyph>
<glyph name="nine" format="2">
	<advance width="600"/>
	<unicode hex="0039"/>
	<outline>
		<contour>
			<point x="209" y="0" type="curve" smooth="yes"/>
			<point x="376" y="0"/>
			<point x="487" y="175"/>
			<point x="487" y="437" type="curve" smooth="yes"/>
			<point x="487" y="603"/>
			<point x="405" y="713"/>
			<point x="283" y="713" type="curve" smooth="yes"/>
			<point x="167" y="713"/>
			<point x="90" y="627"/>
			<point x="90" y="497" type="curve" smooth="yes"/>
			<point x="90" y="375"/>
			<point x="163" y="293"/>
			<point x="272" y="293" type="curve" smooth="yes"/>
			<point x="339" y="293"/>
			<point x="392" y="322"/>
			<point x="420" y="369" type="curve"/>
			<point x="423" y="368" type="line"/>
			<point x="407" y="180"/>
			<point x="322" y="58"/>
			<point x="202" y="58" type="curve" smooth="yes"/>
			<point x="137" y="58"/>
			<point x="137" y="0"/>
		</contour>
		<contour>
			<point x="290" y="343" type="curve" smooth="yes"/>
			<point x="206" y="343"/>
			<point x="151" y="407"/>
			<point x="151" y="503" type="curve" smooth="yes"/>
			<point x="151" y="599"/>
			<point x="206" y="663"/>
			<point x="288" y="663" type="curve" smooth="yes"/>
			<point x="370" y="663"/>
			<point x="426" y="574"/>
			<point x="426" y="441" type="curve" smooth="yes"/>
			<point x="426" y="382"/>
			<point x="366" y="343"/>
		</contour>
	</outline>
</glyph>
<glyph name="question" format="2">
	<advance width="411"/>
	<unicode hex="003F"/>
	<guideline x="194" y="220" angle="90.5209"/>
	<outline>
		<contour>
			<point x="194" y="136" type="curve" smooth="yes"/>
			<point x="209" y="136"/>
			<point x="219" y="150"/>
			<point x="219" y="170" type="curve" smooth="yes"/>
			<point x="219" y="370"/>
			<point x="351" y="339"/>
			<point x="351" y="547" type="curve" smooth="yes"/>
			<point x="351" y="645"/>
			<point x="291" y="710"/>
			<point x="202" y="710" type="curve" smooth="yes"/>
			<point x="117" y="710"/>
			<point x="60" y="650"/>
			<point x="60" y="561" type="curve" smooth="yes"/>
			<point x="60" y="537"/>
			<point x="76" y="521"/>
			<point x="100" y="521" type="curve" smooth="yes"/>
			<point x="124" y="521"/>
			<point x="140" y="537"/>
			<point x="140" y="561" type="curve" smooth="yes"/>
			<point x="140" y="585"/>
			<point x="122" y="601"/>
			<point x="96" y="601" type="curve"/>
			<point x="101" y="558" type="line"/>
			<point x="101" y="619"/>
			<point x="141" y="660"/>
			<point x="202" y="660" type="curve" smooth="yes"/>
			<point x="261" y="660"/>
			<point x="301" y="611"/>
			<point x="301" y="538" type="curve" smooth="yes"/>
			<point x="301" y="374"/>
			<point x="169" y="411"/>
			<point x="169" y="169" type="curve" smooth="yes"/>
			<point x="169" y="149"/>
			<point x="179" y="136"/>
		</contour>
		<component base="period" xOffset="91" yOffset="-1"/>
	</outline>
</glyph>
<glyph name="D" format="2">
	<advance width="605"/>
	<unicode hex="0044"/>
	<outline>
		<contour>
			<point x="264" y="0" type="curve" smooth="yes"/>
			<point x="412" y="0"/>
			<point x="510" y="140"/>
			<point x="510" y="350" type="curve" smooth="yes"/>
			<point x="510" y="609"/>
			<point x="415" y="710"/>
			<point x="272" y="710" type="curve" smooth="yes"/>
			<point x="164" y="710"/>
			<point x="100" y="688"/>
			<point x="100" y="655" type="curve" smooth="yes"/>
			<point x="100" y="60" type="line" smooth="yes"/>
			<point x="100" y="18"/>
			<point x="209" y="0"/>
		</contour>
		<contour>
			<point x="274" y="50" type="curve" smooth="yes"/>
			<point x="243" y="50"/>
			<point x="199" y="57"/>
			<point x="160" y="68" type="curve"/>
			<point x="160" y="645" type="line"/>
			<point x="187" y="654"/>
			<point x="228" y="660"/>
			<point x="277" y="660" type="curve" smooth="yes"/>
			<point x="402" y="660"/>
			<point x="450" y="536"/>
			<point x="450" y="350" type="curve" smooth="yes"/>
			<point x="450" y="170"/>
			<point x="380" y="50"/>
		</contour>
	</outline>
</glyph>
<glyph name="H" format="2">
	<advance width="589"/>
	<unicode hex="0048"/>
	<outline>
		<contour>
			<point x="458" y="-10" type="curve" smooth="yes"/>
			<point x="477" y="-10"/>
			<point x="489" y="6"/>
			<point x="489" y="30" type="curve" smooth="yes"/>
			<point x="489" y="670" type="line" smooth="yes"/>
			<point x="489" y="694"/>
			<point x="477" y="710"/>
			<point x="459" y="710" type="curve" smooth="yes"/>
			<point x="441" y="710"/>
			<point x="429" y="694"/>
			<point x="429" y="670" type="curve" smooth="yes"/>
			<point x="429" y="30" type="line" smooth="yes"/>
			<point x="429" y="6"/>
			<point x="441" y="-10"/>
		</contour>
		<contour>
			<point x="129" y="-10" type="curve" smooth="yes"/>
			<point x="148" y="-10"/>
			<point x="160" y="6"/>
			<point x="160" y="30" type="curve" smooth="yes"/>
			<point x="160" y="670" type="line" smooth="yes"/>
			<point x="160" y="694"/>
			<point x="148" y="710"/>
			<point x="130" y="710" type="curve" smooth="yes"/>
			<point x="112" y="710"/>
			<point x="100" y="694"/>
			<point x="100" y="670" type="curve" smooth="yes"/>
			<point x="100" y="30" type="line" smooth="yes"/>
			<point x="100" y="6"/>
			<point x="112" y="-10"/>
		</contour>
		<contour>
			<point x="154" y="322" type="line"/>
			<point x="442" y="322" type="line"/>
			<point x="442" y="375" type="line"/>
			<point x="154" y="375" type="line"/>
		</contour>
	</outline>
</glyph>
<glyph name="I" format="2">
	<advance width="257"/>
	<unicode hex="0049"/>
	<anchor x="130" y="700" name="top"/>
	<outline>
		<contour>
			<point x="129" y="-10" type="curve" smooth="yes"/>
			<point x="148" y="-10"/>
			<point x="160" y="6"/>
			<point x="160" y="30" type="curve" smooth="yes"/>
			<point x="160" y="670" type="line" smooth="yes"/>
			<point x="160" y="694"/>
			<point x="148" y="710"/>
			<point x="130" y="710" type="curve" smooth="yes"/>
			<point x="112" y="710"/>
			<point x="100" y="694"/>
			<point x="100" y="670" type="curve" smooth="yes"/>
			<point x="100" y="30" type="line" smooth="yes"/>
			<point x="100" y="6"/>
			<point x="112" y="-10"/>
		</contour>
	</outline>
</glyph>
<glyph name="K" format="2">
	<advance width="546"/>
	<unicode hex="004B"/>
	<outline>
		<contour>
			<point x="479" y="-10" type="curve" smooth="yes"/>
			<point x="491" y="-10"/>
			<point x="507" y="-2"/>
			<point x="507" y="11" type="curve" smooth="yes"/>
			<point x="507" y="18"/>
			<point x="504" y="30"/>
			<point x="499" y="39" type="curve" smooth="yes"/>
			<point x="274" y="417" type="line"/>
			<point x="271" y="338" type="line"/>
			<point x="507" y="663" type="line" smooth="yes"/>
			<point x="512" y="670"/>
			<point x="515" y="678"/>
			<point x="515" y="684" type="curve" smooth="yes"/>
			<point x="515" y="699"/>
			<point x="501" y="710"/>
			<point x="483" y="710" type="curve" smooth="yes"/>
			<point x="468" y="710"/>
			<point x="457" y="702"/>
			<point x="449" y="690" type="curve" smooth="yes"/>
			<point x="253" y="413" type="line" smooth="yes"/>
			<point x="242" y="398"/>
			<point x="239" y="386"/>
			<point x="239" y="374" type="curve" smooth="yes"/>
			<point x="239" y="357"/>
			<point x="246" y="341"/>
			<point x="260" y="318" type="curve" smooth="yes"/>
			<point x="452" y="6" type="line" smooth="yes"/>
			<point x="459" y="-5"/>
			<point x="470" y="-10"/>
		</contour>
		<contour>
			<point x="129" y="-10" type="curve" smooth="yes"/>
			<point x="148" y="-10"/>
			<point x="160" y="6"/>
			<point x="160" y="30" type="curve" smooth="yes"/>
			<point x="160" y="670" type="line" smooth="yes"/>
			<point x="160" y="694"/>
			<point x="148" y="710"/>
			<point x="130" y="710" type="curve" smooth="yes"/>
			<point x="112" y="710"/>
			<point x="100" y="694"/>
			<point x="100" y="670" type="curve" smooth="yes"/>
			<point x="100" y="30" type="line" smooth="yes"/>
			<point x="100" y="6"/>
			<point x="112" y="-10"/>
		</contour>
	</outline>
</glyph>
<glyph name="R" format="2">
	<advance width="595"/>
	<unicode hex="0052"/>
	<guideline x="507" y="510" angle="270"/>
	<outline>
		<contour>
			<point x="127" y="-10" type="curve" smooth="yes"/>
			<point x="142" y="-10"/>
			<point x="154" y="6"/>
			<point x="154" y="35" type="curve" smooth="yes"/>
			<point x="154" y="642" type="line"/>
			<point x="128" y="607" type="line"/>
			<point x="166" y="624"/>
			<point x="220" y="632"/>
			<point x="246" y="632" type="curve" smooth="yes"/>
			<point x="365" y="632"/>
			<point x="431" y="561"/>
			<point x="431" y="485" type="curve" smooth="yes"/>
			<point x="431" y="426"/>
			<point x="392" y="365"/>
			<point x="308" y="332" type="curve" smooth="yes"/>
			<point x="278" y="320"/>
			<point x="274" y="308"/>
			<point x="274" y="299" type="curve" smooth="yes"/>
			<point x="274" y="287"/>
			<point x="283" y="276"/>
			<point x="290" y="268" type="curve"/>
			<point x="467" y="23" type="line" smooth="yes"/>
			<point x="482" y="2"/>
			<point x="495" y="-10"/>
			<point x="504" y="-10" type="curve" smooth="yes"/>
			<point x="523" y="-10"/>
			<point x="539" y="10"/>
			<point x="521" y="35" type="curve" smooth="yes"/>
			<point x="319" y="314" type="line"/>
			<point x="311" y="295" type="line"/>
			<point x="428" y="317"/>
			<point x="484" y="402"/>
			<point x="484" y="487" type="curve" smooth="yes"/>
			<point x="484" y="586"/>
			<point x="408" y="685"/>
			<point x="264" y="685" type="curve" smooth="yes"/>
			<point x="149" y="685"/>
			<point x="100" y="664"/>
			<point x="100" y="620" type="curve" smooth="yes"/>
			<point x="100" y="35" type="line" smooth="yes"/>
			<point x="100" y="6"/>
			<point x="112" y="-10"/>
		</contour>
	</outline>
</glyph>
<glyph name="T" format="2">
	<advance width="444"/>
	<unicode hex="0054"/>
	<outline>
		<contour>
			<point x="221" y="-10" type="curve" smooth="yes"/>
			<point x="240" y="-10"/>
			<point x="252" y="6"/>
			<point x="252" y="30" type="curve" smooth="yes"/>
			<point x="252" y="663" type="line"/>
			<point x="192" y="663" type="line"/>
			<point x="192" y="30" type="line" smooth="yes"/>
			<point x="192" y="6"/>
			<point x="204" y="-10"/>
		</contour>
		<contour>
			<point x="9" y="650" type="curve" smooth="yes"/>
			<point x="435" y="650" type="line" smooth="yes"/>
			<point x="452" y="650"/>
			<point x="464" y="660"/>
			<point x="464" y="675" type="curve" smooth="yes"/>
			<point x="464" y="690"/>
			<point x="452" y="700"/>
			<point x="434" y="700" type="curve"/>
			<point x="10" y="700" type="line"/>
			<point x="-8" y="700"/>
			<point x="-20" y="690"/>
			<point x="-20" y="675" type="curve" smooth="yes"/>
			<point x="-20" y="660"/>
			<point x="-8" y="650"/>
		</contour>
	</outline>
</glyph>
<glyph name="U" format="2">
	<advance width="610"/>
	<unicode hex="0055"/>
	<anchor x="305" y="700" name="top"/>
	<outline>
		<contour>
			<point x="305" y="-10" type="curve" smooth="yes"/>
			<point x="431" y="-10"/>
			<point x="515" y="82"/>
			<point x="515" y="221" type="curve" smooth="yes"/>
			<point x="515" y="670" type="line" smooth="yes"/>
			<point x="515" y="694"/>
			<point x="503" y="710"/>
			<point x="485" y="710" type="curve" smooth="yes"/>
			<point x="467" y="710"/>
			<point x="455" y="694"/>
			<point x="455" y="670" type="curve" smooth="yes"/>
			<point x="455" y="221" type="line" smooth="yes"/>
			<point x="455" y="112"/>
			<point x="395" y="40"/>
			<point x="305" y="40" type="curve" smooth="yes"/>
			<point x="215" y="40"/>
			<point x="155" y="112"/>
			<point x="155" y="221" type="curve" smooth="yes"/>
			<point x="155" y="670" type="line" smooth="yes"/>
			<point x="155" y="694"/>
			<point x="143" y="710"/>
			<point x="125" y="710" type="curve" smooth="yes"/>
			<point x="107" y="710"/>
			<point x="95" y="694"/>
			<point x="95" y="670" type="curve" smooth="yes"/>
			<point x="95" y="221" type="line" smooth="yes"/>
			<point x="95" y="82"/>
			<point x="179" y="-10"/>
		</contour>
	</outline>
</glyph>
<glyph name="V" format="2">
	<advance width="608"/>
	<unicode hex="0056"/>
	<outline>
		<contour>
			<point x="307" y="-10" type="curve" smooth="yes"/>
			<point x="338" y="-10"/>
			<point x="363" y="7"/>
			<point x="372" y="43" type="curve" smooth="yes"/>
			<point x="526" y="663" type="line" smooth="yes"/>
			<point x="533" y="692"/>
			<point x="521" y="710"/>
			<point x="502" y="710" type="curve" smooth="yes"/>
			<point x="488" y="710"/>
			<point x="473" y="700"/>
			<point x="467" y="676" type="curve" smooth="yes"/>
			<point x="312" y="32" type="line"/>
			<point x="333" y="39" type="line"/>
			<point x="284" y="39" type="line"/>
			<point x="303" y="32" type="line"/>
			<point x="142" y="676" type="line" smooth="yes"/>
			<point x="136" y="699"/>
			<point x="121" y="710"/>
			<point x="107" y="710" type="curve" smooth="yes"/>
			<point x="89" y="710"/>
			<point x="74" y="693"/>
			<point x="82" y="663" type="curve" smooth="yes"/>
			<point x="239" y="43" type="line" smooth="yes"/>
			<point x="248" y="7"/>
			<point x="276" y="-10"/>
		</contour>
	</outline>
</glyph>
<glyph name="e" format="2">
	<advance width="510"/>
	<unicode hex="0065"/>
	<anchor x="283" y="500" name="top"/>
	<outline>
		<contour>
			<point x="296" y="-10" type="curve" smooth="yes"/>
			<point x="345" y="-10"/>
			<point x="388" y="-5"/>
			<point x="429" y="22" type="curve" smooth="yes"/>
			<point x="473" y="51"/>
			<point x="445" y="95"/>
			<point x="400" y="65" type="curve" smooth="yes"/>
			<point x="373" y="47"/>
			<point x="336" y="40"/>
			<point x="291" y="40" type="curve" smooth="yes"/>
			<point x="199" y="40"/>
			<point x="143" y="124"/>
			<point x="143" y="250" type="curve" smooth="yes"/>
			<point x="143" y="401"/>
			<point x="212" y="460"/>
			<point x="284" y="460" type="curve" smooth="yes"/>
			<point x="355" y="460"/>
			<point x="394" y="407"/>
			<point x="405" y="323" type="curve" smooth="yes"/>
			<point x="408" y="305"/>
			<point x="409" y="286"/>
			<point x="409" y="266" type="curve"/>
			<point x="425" y="280" type="line"/>
			<point x="118" y="280" type="line"/>
			<point x="118" y="238" type="line"/>
			<point x="438" y="238" type="line" smooth="yes"/>
			<point x="452" y="238"/>
			<point x="462" y="250"/>
			<point x="462" y="267" type="curve" smooth="yes"/>
			<point x="462" y="395"/>
			<point x="421" y="510"/>
			<point x="283" y="510" type="curve" smooth="yes"/>
			<point x="155" y="510"/>
			<point x="85" y="406"/>
			<point x="85" y="250" type="curve" smooth="yes"/>
			<point x="85" y="63"/>
			<point x="182" y="-10"/>
		</contour>
	</outline>
</glyph>
<glyph name="f" format="2">
	<advance width="376"/>
	<unicode hex="0066"/>
	<guideline x="376" y="512" angle="90"/>
	<outline>
		<contour>
			<point x="171" y="-10" type="curve" smooth="yes"/>
			<point x="187" y="-10"/>
			<point x="198" y="2"/>
			<point x="198" y="20" type="curve" smooth="yes"/>
			<point x="198" y="614" type="line" smooth="yes"/>
			<point x="198" y="676"/>
			<point x="226" y="710"/>
			<point x="268" y="710" type="curve" smooth="yes"/>
			<point x="309" y="710"/>
			<point x="336" y="696"/>
			<point x="336" y="676" type="curve"/>
			<point x="339" y="694" type="line"/>
			<point x="313" y="694"/>
			<point x="296" y="679"/>
			<point x="296" y="657" type="curve" smooth="yes"/>
			<point x="296" y="631"/>
			<point x="312" y="614"/>
			<point x="336" y="614" type="curve" smooth="yes"/>
			<point x="360" y="614"/>
			<point x="376" y="631"/>
			<point x="376" y="657" type="curve" smooth="yes"/>
			<point x="376" y="719"/>
			<point x="328" y="760"/>
			<point x="255" y="760" type="curve" smooth="yes"/>
			<point x="188" y="760"/>
			<point x="144" y="704"/>
			<point x="144" y="611" type="curve" smooth="yes"/>
			<point x="144" y="20" type="line" smooth="yes"/>
			<point x="144" y="2"/>
			<point x="155" y="-10"/>
		</contour>
		<contour>
			<point x="90" y="450" type="curve" smooth="yes"/>
			<point x="302" y="450" type="line" smooth="yes"/>
			<point x="320" y="450"/>
			<point x="332" y="460"/>
			<point x="332" y="475" type="curve" smooth="yes"/>
			<point x="332" y="490"/>
			<point x="320" y="500"/>
			<point x="301" y="500" type="curve" smooth="yes"/>
			<point x="91" y="500" type="line" smooth="yes"/>
			<point x="72" y="500"/>
			<point x="60" y="490"/>
			<point x="60" y="475" type="curve" smooth="yes"/>
			<point x="60" y="460"/>
			<point x="72" y="450"/>
		</contour>
	</outline>
</glyph>
<glyph name="j" format="2">
	<advance width="284"/>
	<unicode hex="006A"/>
	<outline>
		<contour>
			<point x="109" y="-210" type="curve" smooth="yes"/>
			<point x="159" y="-210"/>
			<point x="192" y="-171"/>
			<point x="192" y="-112" type="curve" smooth="yes"/>
			<point x="192" y="480" type="line" smooth="yes"/>
			<point x="192" y="498"/>
			<point x="181" y="510"/>
			<point x="165" y="510" type="curve" smooth="yes"/>
			<point x="149" y="510"/>
			<point x="138" y="498"/>
			<point x="138" y="480" type="curve" smooth="yes"/>
			<point x="138" y="-116" type="line" smooth="yes"/>
			<point x="138" y="-142"/>
			<point x="123" y="-160"/>
			<point x="101" y="-160" type="curve" smooth="yes"/>
			<point x="76" y="-160"/>
			<point x="60" y="-138"/>
			<point x="60" y="-104" type="curve"/>
			<point x="50" y="-152" type="line"/>
			<point x="71" y="-152"/>
			<point x="85" y="-138"/>
			<point x="85" y="-117" type="curve" smooth="yes"/>
			<point x="85" y="-96"/>
			<point x="71" y="-82"/>
			<point x="50" y="-82" type="curve" smooth="yes"/>
			<point x="29" y="-82"/>
			<point x="15" y="-96"/>
			<point x="15" y="-117" type="curve" smooth="yes"/>
			<point x="15" y="-173"/>
			<point x="53" y="-210"/>
		</contour>
		<contour>
			<point x="164" y="600" type="curve" smooth="yes"/>
			<point x="190" y="601"/>
			<point x="206" y="618"/>
			<point x="205" y="642" type="curve" smooth="yes"/>
			<point x="204" y="667"/>
			<point x="188" y="683"/>
			<point x="164" y="682" type="curve" smooth="yes"/>
			<point x="140" y="681"/>
			<point x="124" y="665"/>
			<point x="123" y="642" type="curve" smooth="yes"/>
			<point x="122" y="616"/>
			<point x="138" y="599"/>
		</contour>
	</outline>
</glyph>
<glyph name="m" format="2">
	<advance width="821"/>
	<unicode hex="006D"/>
	<outline>
		<contour>
			<point x="113" y="-10" type="curve" smooth="yes"/>
			<point x="129" y="-10"/>
			<point x="140" y="2"/>
			<point x="140" y="20" type="curve" smooth="yes"/>
			<point x="140" y="344" type="line"/>
			<point x="140" y="419"/>
			<point x="189" y="469"/>
			<point x="262" y="469" type="curve" smooth="yes"/>
			<point x="335" y="469"/>
			<point x="384" y="419"/>
			<point x="384" y="344" type="curve" smooth="yes"/>
			<point x="384" y="20" type="line" smooth="yes"/>
			<point x="384" y="2"/>
			<point x="395" y="-10"/>
			<point x="411" y="-10" type="curve" smooth="yes"/>
			<point x="427" y="-10"/>
			<point x="438" y="2"/>
			<point x="438" y="20" type="curve" smooth="yes"/>
			<point x="438" y="344" type="line" smooth="yes"/>
			<point x="438" y="443"/>
			<point x="375" y="509"/>
			<point x="281" y="509" type="curve" smooth="yes"/>
			<point x="214" y="509"/>
			<point x="163" y="476"/>
			<point x="139" y="421" type="curve"/>
			<point x="138" y="422" type="line"/>
			<point x="140" y="441" type="line"/>
			<point x="140" y="480" type="line"/>
			<point x="140" y="498"/>
			<point x="129" y="510"/>
			<point x="113" y="510" type="curve" smooth="yes"/>
			<point x="97" y="510"/>
			<point x="86" y="498"/>
			<point x="86" y="480" type="curve" smooth="yes"/>
			<point x="86" y="20" type="line" smooth="yes"/>
			<point x="86" y="2"/>
			<point x="97" y="-10"/>
		</contour>
		<contour>
			<point x="709" y="-10" type="curve" smooth="yes"/>
			<point x="725" y="-10"/>
			<point x="736" y="2"/>
			<point x="736" y="20" type="curve" smooth="yes"/>
			<point x="736" y="344" type="line" smooth="yes"/>
			<point x="736" y="443"/>
			<point x="673" y="509"/>
			<point x="579" y="509" type="curve" smooth="yes"/>
			<point x="485" y="509"/>
			<point x="422" y="443"/>
			<point x="422" y="344" type="curve"/>
			<point x="438" y="344" type="line"/>
			<point x="438" y="419"/>
			<point x="487" y="469"/>
			<point x="560" y="469" type="curve" smooth="yes"/>
			<point x="633" y="469"/>
			<point x="682" y="419"/>
			<point x="682" y="344" type="curve" smooth="yes"/>
			<point x="682" y="20" type="line" smooth="yes"/>
			<point x="682" y="2"/>
			<point x="693" y="-10"/>
		</contour>
	</outline>
</glyph>
<glyph name="n" format="2">
	<advance width="523"/>
	<unicode hex="006E"/>
	<anchor x="263" y="500" name="top"/>
	<outline>
		<contour>
			<point x="113" y="-10" type="curve" smooth="yes"/>
			<point x="129" y="-10"/>
			<point x="140" y="2"/>
			<point x="140" y="20" type="curve" smooth="yes"/>
			<point x="140" y="344" type="line" smooth="yes"/>
			<point x="140" y="419"/>
			<point x="189" y="469"/>
			<point x="262" y="469" type="curve" smooth="yes"/>
			<point x="335" y="469"/>
			<point x="384" y="419"/>
			<point x="384" y="344" type="curve" smooth="yes"/>
			<point x="384" y="20" type="line" smooth="yes"/>
			<point x="384" y="2"/>
			<point x="395" y="-10"/>
			<point x="411" y="-10" type="curve" smooth="yes"/>
			<point x="427" y="-10"/>
			<point x="438" y="2"/>
			<point x="438" y="20" type="curve" smooth="yes"/>
			<point x="438" y="344" type="line" smooth="yes"/>
			<point x="438" y="443"/>
			<point x="375" y="509"/>
			<point x="281" y="509" type="curve" smooth="yes"/>
			<point x="220" y="509"/>
			<point x="168" y="480"/>
			<point x="142" y="431" type="curve"/>
			<point x="140" y="431" type="line"/>
			<point x="140" y="480" type="line" smooth="yes"/>
			<point x="140" y="498"/>
			<point x="129" y="510"/>
			<point x="113" y="510" type="curve" smooth="yes"/>
			<point x="97" y="510"/>
			<point x="86" y="498"/>
			<point x="86" y="480" type="curve" smooth="yes"/>
			<point x="86" y="20" type="line" smooth="yes"/>
			<point x="86" y="2"/>
			<point x="97" y="-10"/>
		</contour>
	</outline>
</glyph>
<glyph name="s" format="2">
	<advance width="474"/>
	<unicode hex="0073"/>
	<outline>
		<contour>
			<point x="243" y="-10" type="curve" smooth="yes"/>
			<point x="337" y="-10"/>
			<point x="399" y="48"/>
			<point x="399" y="136" type="curve" smooth="yes"/>
			<point x="399" y="291"/>
			<point x="135" y="255"/>
			<point x="135" y="371" type="curve" smooth="yes"/>
			<point x="135" y="424"/>
			<point x="181" y="460"/>
			<point x="250" y="460" type="curve" smooth="yes"/>
			<point x="319" y="460"/>
			<point x="365" y="424"/>
			<point x="365" y="371" type="curve"/>
			<point x="366" y="415" type="line"/>
			<point x="339" y="415"/>
			<point x="321" y="401"/>
			<point x="321" y="381" type="curve" smooth="yes"/>
			<point x="321" y="357"/>
			<point x="335" y="341"/>
			<point x="356" y="341" type="curve" smooth="yes"/>
			<point x="377" y="341"/>
			<point x="391" y="357"/>
			<point x="391" y="381" type="curve" smooth="yes"/>
			<point x="391" y="458"/>
			<point x="330" y="510"/>
			<point x="238" y="510" type="curve" smooth="yes"/>
			<point x="146" y="510"/>
			<point x="85" y="452"/>
			<point x="85" y="364" type="curve" smooth="yes"/>
			<point x="85" y="205"/>
			<point x="349" y="241"/>
			<point x="349" y="129" type="curve" smooth="yes"/>
			<point x="349" y="76"/>
			<point x="303" y="40"/>
			<point x="234" y="40" type="curve" smooth="yes"/>
			<point x="139" y="40"/>
			<point x="107" y="92"/>
			<point x="75" y="92" type="curve" smooth="yes"/>
			<point x="61" y="92"/>
			<point x="52" y="84"/>
			<point x="52" y="71" type="curve" smooth="yes"/>
			<point x="52" y="31"/>
			<point x="139" y="-10"/>
		</contour>
	</outline>
</glyph>
<glyph name="u" format="2">
	<advance width="523"/>
	<unicode hex="0075"/>
	<anchor x="261" y="500" name="top"/>
	<outline>
		<contour>
			<point x="410" y="-10" type="curve" smooth="yes"/>
			<point x="426" y="-10"/>
			<point x="437" y="2"/>
			<point x="437" y="20" type="curve" smooth="yes"/>
			<point x="437" y="480" type="line" smooth="yes"/>
			<point x="437" y="498"/>
			<point x="426" y="510"/>
			<point x="410" y="510" type="curve" smooth="yes"/>
			<point x="394" y="510"/>
			<point x="383" y="498"/>
			<point x="383" y="480" type="curve" smooth="yes"/>
			<point x="383" y="156" type="line" smooth="yes"/>
			<point x="383" y="81"/>
			<point x="334" y="31"/>
			<point x="261" y="31" type="curve" smooth="yes"/>
			<point x="188" y="31"/>
			<point x="139" y="81"/>
			<point x="139" y="156" type="curve" smooth="yes"/>
			<point x="139" y="480" type="line" smooth="yes"/>
			<point x="139" y="498"/>
			<point x="128" y="510"/>
			<point x="112" y="510" type="curve" smooth="yes"/>
			<point x="96" y="510"/>
			<point x="85" y="498"/>
			<point x="85" y="480" type="curve" smooth="yes"/>
			<point x="85" y="156" type="line" smooth="yes"/>
			<point x="85" y="57"/>
			<point x="148" y="-9"/>
			<point x="242" y="-9" type="curve" smooth="yes"/>
			<point x="306" y="-9"/>
			<point x="356" y="21"/>
			<point x="381" y="72" type="curve"/>
			<point x="383" y="72" type="line"/>
			<point x="383" y="20" type="line"/>
			<point x="383" y="2"/>
			<point x="394" y="-10"/>
		</contour>
	</outline>
</glyph>
<glyph name="AE" format="2">
	<advance width="780"/>
	<unicode hex="00C6"/>
	<anchor x="247" y="710" name="top"/>
	<outline>
		<contour>
			<point x="71" y="-10" type="curve" smooth="yes"/>
			<point x="85" y="-10"/>
			<point x="102" y="0"/>
			<point x="114" y="24" type="curve" smooth="yes"/>
			<point x="435" y="651" type="line"/>
			<point x="438" y="651" type="line"/>
			<point x="472" y="647" type="line"/>
			<point x="469" y="683"/>
			<point x="479" y="700"/>
			<point x="448" y="700" type="curve" smooth="yes"/>
			<point x="417" y="700"/>
			<point x="390" y="683"/>
			<point x="371" y="647" type="curve" smooth="yes"/>
			<point x="57" y="37" type="line" smooth="yes"/>
			<point x="42" y="8"/>
			<point x="52" y="-10"/>
		</contour>
		<contour>
			<point x="196" y="274" type="line"/>
			<point x="499" y="274" type="line"/>
			<point x="510" y="324" type="line"/>
			<point x="207" y="324" type="line"/>
		</contour>
		<contour>
			<point x="475" y="274" type="line"/>
			<point x="646" y="274" type="line" smooth="yes"/>
			<point x="664" y="274"/>
			<point x="676" y="284"/>
			<point x="676" y="299" type="curve" smooth="yes"/>
			<point x="676" y="314"/>
			<point x="664" y="324"/>
			<point x="646" y="324" type="curve" smooth="yes"/>
			<point x="475" y="324" type="line"/>
		</contour>
		<contour>
			<point x="467" y="0" type="curve" smooth="yes"/>
			<point x="731" y="0" type="line" smooth="yes"/>
			<point x="748" y="0"/>
			<point x="760" y="10"/>
			<point x="760" y="25" type="curve" smooth="yes"/>
			<point x="760" y="41"/>
			<point x="748" y="51"/>
			<point x="730" y="51" type="curve" smooth="yes"/>
			<point x="489" y="51" type="line"/>
			<point x="498" y="35" type="line"/>
			<point x="498" y="665" type="line"/>
			<point x="489" y="650" type="line"/>
			<point x="731" y="650" type="line" smooth="yes"/>
			<point x="748" y="650"/>
			<point x="760" y="660"/>
			<point x="760" y="675" type="curve" smooth="yes"/>
			<point x="760" y="690"/>
			<point x="748" y="700"/>
			<point x="730" y="700" type="curve" smooth="yes"/>
			<point x="448" y="700" type="line" smooth="yes"/>
			<point x="448" y="700"/>
			<point x="438" y="688"/>
			<point x="438" y="670" type="curve"/>
			<point x="438" y="25" type="line" smooth="yes"/>
			<point x="438" y="10"/>
			<point x="450" y="0"/>
		</contour>
	</outline>
</glyph>
<glyph name="tilde" format="2">
	<advance width="600"/>
	<unicode hex="02DC"/>
	<anchor x="263" y="500" name="_top"/>
	<outline>
		<contour>
			<point x="131" y="577" type="curve" smooth="yes"/>
			<point x="143" y="577"/>
			<point x="151" y="587"/>
			<point x="151" y="602" type="curve" smooth="yes"/>
			<point x="151" y="628"/>
			<point x="162" y="648"/>
			<point x="178" y="648" type="curve" smooth="yes"/>
			<point x="228" y="648"/>
			<point x="293" y="584"/>
			<point x="358" y="584" type="curve" smooth="yes"/>
			<point x="392" y="584"/>
			<point x="415" y="619"/>
			<point x="415" y="672" type="curve" smooth="yes"/>
			<point x="415" y="687"/>
			<point x="407" y="697"/>
			<point x="394" y="697" type="curve" smooth="yes"/>
			<point x="383" y="697"/>
			<point x="375" y="687"/>
			<point x="375" y="672" type="curve" smooth="yes"/>
			<point x="375" y="644"/>
			<point x="368" y="626"/>
			<point x="358" y="626" type="curve" smooth="yes"/>
			<point x="318" y="626"/>
			<point x="243" y="690"/>
			<point x="178" y="690" type="curve" smooth="yes"/>
			<point x="138" y="690"/>
			<point x="111" y="655"/>
			<point x="111" y="602" type="curve" smooth="yes"/>
			<point x="111" y="587"/>
			<point x="119" y="577"/>
		</contour>
	</outline>
</glyph>
<glyph name="bullet" format="2">
	<advance width="483"/>
	<unicode hex="2022"/>
	<outline>
		<contour>
			<point x="243" y="228" type="curve" smooth="yes"/>
			<point x="309" y="228"/>
			<point x="365" y="281"/>
			<point x="365" y="350" type="curve" smooth="yes"/>
			<point x="365" y="352" type="line" smooth="yes"/>
			<point x="365" y="420"/>
			<point x="308" y="474"/>
			<point x="243" y="474" type="curve" smooth="yes"/>
			<point x="176" y="474"/>
			<point x="120" y="420"/>
			<point x="120" y="352" type="curve" smooth="yes"/>
			<point x="120" y="350" type="line" smooth="yes"/>
			<point x="120" y="281"/>
			<point x="175" y="228"/>
		</contour>
	</outline>
</glyph>
<glyph name="fl" format="2">
	<advance width="581"/>
	<unicode hex="FB02"/>
	<outline>
		<contour>
			<point x="60" y="475" type="curve" smooth="yes"/>
			<point x="60" y="460"/>
			<point x="72" y="450"/>
			<point x="90" y="450" type="curve" smooth="yes"/>
			<point x="302" y="450" type="line" smooth="yes"/>
			<point x="320" y="450"/>
			<point x="332" y="460"/>
			<point x="332" y="475" type="curve" smooth="yes"/>
			<point x="332" y="490"/>
			<point x="320" y="500"/>
			<point x="301" y="500" type="curve" smooth="yes"/>
			<point x="91" y="500" type="line" smooth="yes"/>
			<point x="72" y="500"/>
			<point x="60" y="490"/>
		</contour>
		<contour>
			<point x="505" y="730" type="line" smooth="yes"/>
			<point x="505" y="748"/>
			<point x="495" y="760"/>
			<point x="480" y="760" type="curve" smooth="yes"/>
			<point x="458" y="760"/>
			<point x="455" y="741"/>
			<point x="455" y="733" type="curve" smooth="yes"/>
			<point x="455" y="704" type="line"/>
			<point x="453" y="704" type="line"/>
			<point x="419" y="741"/>
			<point x="383" y="760"/>
			<point x="325" y="760" type="curve" smooth="yes"/>
			<point x="228" y="760"/>
			<point x="144" y="705"/>
			<point x="144" y="582" type="curve" smooth="yes"/>
			<point x="144" y="20" type="line" smooth="yes"/>
			<point x="144" y="2"/>
			<point x="155" y="-10"/>
			<point x="171" y="-10" type="curve" smooth="yes"/>
			<point x="187" y="-10"/>
			<point x="198" y="2"/>
			<point x="198" y="20" type="curve" smooth="yes"/>
			<point x="198" y="585" type="line" smooth="yes"/>
			<point x="198" y="679"/>
			<point x="256" y="710"/>
			<point x="327" y="710" type="curve" smooth="yes"/>
			<point x="400" y="710"/>
			<point x="451" y="658"/>
			<point x="451" y="595" type="curve" smooth="yes"/>
			<point x="451" y="20" type="line" smooth="yes"/>
			<point x="451" y="2"/>
			<point x="461" y="-10"/>
			<point x="477" y="-10" type="curve" smooth="yes"/>
			<point x="494" y="-10"/>
			<point x="505" y="2"/>
			<point x="505" y="20" type="curve" smooth="yes"/>
		</contour>
	</outline>
</glyph>
<glyph name="ampersand.salt" format="2">
	<advance width="631"/>
	<outline>
		<contour>
			<point x="231" y="-10" type="curve" smooth="yes"/>
			<point x="318" y="-10"/>
			<point x="376" y="52"/>
			<point x="376" y="146" type="curve"/>
			<point x="358" y="148" type="line"/>
			<point x="358" y="83"/>
			<point x="316" y="40"/>
			<point x="253" y="40" type="curve" smooth="yes"/>
			<point x="167" y="40"/>
			<point x="110" y="100"/>
			<point x="110" y="190" type="curve" smooth="yes"/>
			<point x="110" y="284"/>
			<point x="180" y="347"/>
			<point x="286" y="347" type="curve"/>
			<point x="529" y="347" type="line"/>
			<point x="553" y="347"/>
			<point x="569" y="356"/>
			<point x="569" y="371" type="curve" smooth="yes"/>
			<point x="569" y="386"/>
			<point x="553" y="396"/>
			<point x="528" y="396" type="curve"/>
			<point x="286" y="396" type="line"/>
			<point x="200" y="396"/>
			<point x="143" y="456"/>
			<point x="143" y="547" type="curve" smooth="yes"/>
			<point x="143" y="621"/>
			<point x="193" y="670"/>
			<point x="269" y="670" type="curve" smooth="yes"/>
			<point x="343" y="670"/>
			<point x="393" y="642"/>
			<point x="394" y="599" type="curve"/>
			<point x="394" y="616" type="line"/>
			<point x="370" y="616"/>
			<point x="354" y="598"/>
			<point x="354" y="571" type="curve" smooth="yes"/>
			<point x="354" y="547"/>
			<point x="370" y="531"/>
			<point x="394" y="531" type="curve" smooth="yes"/>
			<point x="418" y="531"/>
			<point x="434" y="547"/>
			<point x="434" y="571" type="curve" smooth="yes"/>
			<point x="434" y="654"/>
			<point x="367" y="710"/>
			<point x="266" y="710" type="curve" smooth="yes"/>
			<point x="156" y="710"/>
			<point x="83" y="645"/>
			<point x="83" y="547" type="curve" smooth="yes"/>
			<point x="83" y="438"/>
			<point x="145" y="366"/>
			<point x="237" y="366" type="curve"/>
			<point x="237" y="374" type="line"/>
			<point x="125" y="374"/>
			<point x="50" y="294"/>
			<point x="50" y="175" type="curve" smooth="yes"/>
			<point x="50" y="64"/>
			<point x="122" y="-10"/>
		</contour>
		<contour>
			<point x="461" y="-10" type="curve" smooth="yes"/>
			<point x="499" y="-10"/>
			<point x="539" y="0"/>
			<point x="561" y="14" type="curve" smooth="yes"/>
			<point x="597" y="41"/>
			<point x="564" y="79"/>
			<point x="534" y="59" type="curve" smooth="yes"/>
			<point x="514" y="48"/>
			<point x="489" y="40"/>
			<point x="471" y="40" type="curve" smooth="yes"/>
			<point x="436" y="40"/>
			<point x="413" y="70"/>
			<point x="413" y="114" type="curve"/>
			<point x="413" y="359" type="line"/>
			<point x="413" y="381"/>
			<point x="402" y="396"/>
			<point x="385" y="396" type="curve" smooth="yes"/>
			<point x="369" y="396"/>
			<point x="358" y="381"/>
			<point x="358" y="359" type="curve"/>
			<point x="358" y="114" type="line"/>
			<point x="358" y="40"/>
			<point x="399" y="-10"/>
		</contour>
	</outline>
</glyph>
<glyph name="g.salt" format="2">
	<advance width="540"/>
	<outline>
		<contour>
			<point x="295" y="-210" type="curve" smooth="yes"/>
			<point x="391" y="-210"/>
			<point x="455" y="-133"/>
			<point x="455" y="-17" type="curve" smooth="yes"/>
			<point x="455" y="466" type="line"/>
			<point x="413" y="492"/>
			<point x="350" y="510"/>
			<point x="297" y="510" type="curve" smooth="yes"/>
			<point x="182" y="510"/>
			<point x="105" y="406"/>
			<point x="105" y="251" type="curve" smooth="yes"/>
			<point x="105" y="94"/>
			<point x="176" y="0"/>
			<point x="270" y="0" type="curve" smooth="yes"/>
			<point x="334" y="0"/>
			<point x="379" y="27"/>
			<point x="403" y="77" type="curve"/>
			<point x="405" y="77" type="line"/>
			<point x="405" y="-38" type="line" smooth="yes"/>
			<point x="405" y="-111"/>
			<point x="362" y="-160"/>
			<point x="297" y="-160" type="curve" smooth="yes"/>
			<point x="241" y="-160"/>
			<point x="198" y="-149"/>
			<point x="178" y="-132" type="curve"/>
			<point x="189" y="-125"/>
			<point x="195" y="-113"/>
			<point x="195" y="-97" type="curve" smooth="yes"/>
			<point x="195" y="-74"/>
			<point x="179" y="-59"/>
			<point x="155" y="-59" type="curve" smooth="yes"/>
			<point x="131" y="-59"/>
			<point x="115" y="-74"/>
			<point x="115" y="-97" type="curve" smooth="yes"/>
			<point x="115" y="-165"/>
			<point x="187" y="-210"/>
		</contour>
		<contour>
			<point x="285" y="40" type="curve" smooth="yes"/>
			<point x="209" y="40"/>
			<point x="159" y="126"/>
			<point x="159" y="255" type="curve" smooth="yes"/>
			<point x="159" y="378"/>
			<point x="214" y="460"/>
			<point x="297" y="460" type="curve" smooth="yes"/>
			<point x="340" y="460"/>
			<point x="381" y="450"/>
			<point x="405" y="434" type="curve"/>
			<point x="405" y="168" type="line" smooth="yes"/>
			<point x="405" y="91"/>
			<point x="357" y="40"/>
		</contour>
	</outline>
</glyph>
<glyph name="tilde.case" format="2">
	<advance width="600"/>
	<anchor x="263" y="700" name="_top"/>
	<outline>
		<contour>
			<point x="122" y="761" type="curve" smooth="yes"/>
			<point x="134" y="761"/>
			<point x="142" y="771"/>
			<point x="142" y="786" type="curve" smooth="yes"/>
			<point x="142" y="812"/>
			<point x="153" y="830"/>
			<point x="169" y="830" type="curve" smooth="yes"/>
			<point x="219" y="830"/>
			<point x="304" y="768"/>
			<point x="369" y="768" type="curve" smooth="yes"/>
			<point x="403" y="768"/>
			<point x="426" y="803"/>
			<point x="426" y="856" type="curve" smooth="yes"/>
			<point x="426" y="871"/>
			<point x="418" y="881"/>
			<point x="405" y="881" type="curve" smooth="yes"/>
			<point x="394" y="881"/>
			<point x="386" y="871"/>
			<point x="386" y="856" type="curve" smooth="yes"/>
			<point x="386" y="828"/>
			<point x="379" y="810"/>
			<point x="369" y="810" type="curve" smooth="yes"/>
			<point x="329" y="810"/>
			<point x="234" y="874"/>
			<point x="169" y="874" type="curve" smooth="yes"/>
			<point x="129" y="874"/>
			<point x="102" y="839"/>
			<point x="102" y="786" type="curve" smooth="yes"/>
			<point x="102" y="771"/>
			<point x="110" y="761"/>
		</contour>
	</outline>
</glyph>
